<?xml version="1.0" encoding="UTF-8"?>
<svg xmlns="http://www.w3.org/2000/svg" xmlns:xlink="http://www.w3.org/1999/xlink" width="24px" height="24px" viewBox="0 0 24 24" version="1.1">
<g id="surface1">
<path style=" stroke:none;fill-rule:evenodd;fill:rgb(100%,100%,100%);fill-opacity:1;" d="M 11.949219 0 C 4.800781 0 -0.882812 6.152344 0.113281 13.351562 C 0.75 17.9375 4.226562 21.789062 8.785156 23 C 10.480469 23.453125 12.234375 23.550781 13.992188 23.246094 C 15.460938 22.992188 16.96875 23.105469 18.40625 23.464844 L 20.15625 23.902344 C 22.421875 24.46875 24.480469 22.453125 23.902344 20.230469 C 23.902344 20.230469 23.578125 18.988281 23.566406 18.949219 C 23.207031 17.554688 23.128906 16.085938 23.5 14.699219 C 23.964844 12.988281 24.042969 11.121094 23.625 9.191406 C 22.523438 4.097656 17.847656 0 11.949219 0 M 11.949219 2.398438 C 16.691406 2.398438 20.40625 5.652344 21.28125 9.699219 C 21.601562 11.183594 21.570312 12.652344 21.1875 14.070312 C 19.566406 20.0625 24.300781 22.464844 18.988281 21.136719 C 17.222656 20.695312 15.378906 20.570312 13.582031 20.882812 C 12.195312 21.121094 10.792969 21.054688 9.402344 20.683594 C 5.769531 19.714844 2.992188 16.636719 2.492188 13.019531 C 1.6875 7.195312 6.324219 2.398438 11.949219 2.398438 "/>
</g>
</svg>
